<svg width="42" height="51" viewBox="0 0 42 51" fill="none" xmlns="http://www.w3.org/2000/svg">
<path d="M36.2353 17.0907H33.6471V12.3209C33.6471 5.73863 27.8494 0.396484 20.7059 0.396484C13.5624 0.396484 7.76471 5.73863 7.76471 12.3209V17.0907H5.17647C2.32941 17.0907 0 19.2371 0 21.8605V45.7094C0 48.3327 2.32941 50.4791 5.17647 50.4791H36.2353C39.0824 50.4791 41.4118 48.3327 41.4118 45.7094V21.8605C41.4118 19.2371 39.0824 17.0907 36.2353 17.0907ZM12.9412 12.3209C12.9412 8.36201 16.4094 5.16626 20.7059 5.16626C25.0024 5.16626 28.4706 8.36201 28.4706 12.3209V17.0907H12.9412V12.3209ZM36.2353 45.7094H5.17647V21.8605H36.2353V45.7094ZM20.7059 38.5547C23.5529 38.5547 25.8824 36.4083 25.8824 33.7849C25.8824 31.1615 23.5529 29.0151 20.7059 29.0151C17.8588 29.0151 15.5294 31.1615 15.5294 33.7849C15.5294 36.4083 17.8588 38.5547 20.7059 38.5547Z" fill="#5C70C9"/>
</svg>
